<svg width="51" height="119" viewBox="0 0 51 119" fill="none" xmlns="http://www.w3.org/2000/svg">
<path d="M50.4914 49.0349V40.9433C50.4914 36.866 49.1788 32.8517 44.5935 31.7279C41.267 30.9187 36.502 29.8578 36.502 29.8578C31.2155 28.5182 31.4672 22.5664 31.4672 20.2019H19.0377C19.0377 22.5664 19.2759 28.5182 13.9804 29.8758C13.9804 29.8758 9.22439 30.9367 5.88887 31.7459C1.31263 32.8562 0 36.884 0 40.9613V49.0529C0 52.8289 3.27259 57.041 3.27259 59.9495V96.465C3.27259 99.3465 0 103.568 0 107.344V115.435C0 117.211 0.899063 118.739 3.27259 118.739H47.2008C49.5609 118.739 50.4734 117.211 50.4734 115.435V107.344C50.4734 103.568 47.2008 99.3599 47.2008 96.447V59.9315C47.2008 57.0231 50.4914 52.8109 50.4914 49.0349Z" fill="#A1151A"/>
<path d="M31.4583 0H19.0377V20.202H31.4583V0Z" fill="#D7B344"/>
<path d="M38.844 47.021H11.6473V100.025H38.844V47.021Z" fill="#D7B344"/>
<path d="M38.844 67.4792H11.6473V76.1822H38.844V67.4792Z" fill="white"/>
<path d="M25.2457 62.2106C28.1107 62.2106 30.4333 59.8881 30.4333 57.023C30.4333 54.158 28.1107 51.8354 25.2457 51.8354C22.3807 51.8354 20.0581 54.158 20.0581 57.023C20.0581 59.8881 22.3807 62.2106 25.2457 62.2106Z" fill="#A1151A"/>
<path d="M33.2473 76.1821H17.244V94.6714H33.2473V76.1821Z" fill="#A1151A"/>
</svg>
