<svg width="107" height="81" viewBox="0 0 107 81" fill="none" xmlns="http://www.w3.org/2000/svg">
<path d="M31.2595 10.0483C30.2209 10.0483 29.2756 10.5371 28.6643 11.2162C28.053 11.8953 27.7138 12.7262 27.5518 13.582C27.5518 13.5824 27.5518 13.5828 27.5518 13.5832L26.5127 19.0771C25.2266 19.5038 23.9766 20.0239 22.7671 20.6348L18.1404 17.4801C17.4212 16.9898 16.5937 16.6413 15.6812 16.5932C14.7677 16.5452 13.7545 16.8702 13.0211 17.6037L7.5581 23.0667C6.82373 23.8009 6.49981 24.8147 6.54721 25.7271C6.59432 26.6395 6.94238 27.469 7.43283 28.189L10.5739 32.7959C9.9646 34.0115 9.44714 35.2678 9.02363 36.56L3.53501 37.5988C2.6792 37.7607 1.84674 38.1 1.16764 38.7112C0.488528 39.3225 0 40.2696 0 41.3081V49.034C0 50.0725 0.488528 51.0179 1.16764 51.6292C1.84674 52.2404 2.6792 52.581 3.53501 52.7429L9.03241 53.7843C9.45911 55.0692 9.97821 56.318 10.5888 57.5264L7.43283 62.1531C6.942 62.873 6.59463 63.7019 6.54721 64.6146C6.50013 65.5272 6.82341 66.5409 7.5581 67.275L13.0211 72.738C13.7554 73.4723 14.7687 73.795 15.6812 73.7472C16.5936 73.6994 17.4219 73.3514 18.1417 72.8606L22.7486 69.7206C23.9646 70.3297 25.2216 70.8465 26.514 71.2698L27.5528 76.7585C27.7148 77.6143 28.0543 78.4468 28.6656 79.1259C29.2769 79.8049 30.2222 80.2935 31.2608 80.2935H38.988C40.0265 80.2935 40.9719 79.8049 41.5832 79.1259C42.1942 78.4471 42.5339 77.6152 42.6959 76.7598V76.7579L43.736 71.2644C45.0222 70.8377 46.2721 70.3176 47.4816 69.7067L52.107 72.8601C52.8268 73.3508 53.6551 73.6989 54.5676 73.7467C55.48 73.7945 56.4946 73.4717 57.229 72.7374L62.692 67.2744C63.4263 66.54 63.7495 65.5252 63.7015 64.6127C63.6538 63.7002 63.3054 62.8719 62.8146 62.1522L59.6736 57.5456C60.283 56.3297 60.8002 55.0736 61.2238 53.7812L66.7124 52.7423C67.5682 52.5804 68.4007 52.2399 69.0798 51.6286C69.7589 51.0174 70.2474 50.072 70.2474 49.0334V41.3072C70.2474 40.2687 69.7589 39.322 69.0798 38.7107C68.401 38.0997 67.5691 37.7603 66.7137 37.5983L61.2189 36.5582C60.7924 35.2728 60.2718 34.0237 59.6612 32.8148L62.8159 28.1885C63.3065 27.4689 63.6547 26.6405 63.7028 25.7279C63.7512 24.8154 63.4268 23.8006 62.692 23.0662L57.2303 17.6032C56.4958 16.8692 55.4816 16.5447 54.5685 16.5927C53.6562 16.6409 52.8288 16.9895 52.1096 17.4796L47.5028 20.6206C46.2868 20.0115 45.0298 19.4947 43.7373 19.0714L42.6969 13.5814C42.535 12.7257 42.1957 11.8948 41.5845 11.2157C40.9732 10.5366 40.0278 10.0477 38.9893 10.0477L31.2595 10.0483ZM35.1232 31.8648C42.4875 31.8648 48.4276 37.806 48.4273 45.1702C48.4273 52.5341 42.4871 58.4753 35.1232 58.4756C27.759 58.4756 21.8178 52.5344 21.8175 45.1702C21.8175 37.8056 27.7587 31.8646 35.1232 31.8648Z" fill="#A1151A"/>
<path d="M86.1944 0.000283035C85.6466 0.000283035 85.148 0.258135 84.8256 0.61632C84.5031 0.974501 84.3242 1.41274 84.2388 1.86414C84.2388 1.86436 84.2388 1.86458 84.2388 1.8648L83.6907 4.76253C83.0124 4.98759 82.353 5.26192 81.7151 5.58414L79.2747 3.92021C78.8954 3.66159 78.4589 3.47777 77.9776 3.4524C77.4958 3.42709 76.9614 3.59853 76.5745 3.98542L73.6931 6.86688C73.3057 7.25412 73.1349 7.78887 73.1599 8.27012C73.1847 8.75137 73.3683 9.1889 73.627 9.56861L75.2837 11.9985C74.9624 12.6397 74.6895 13.3024 74.4661 13.9839L71.5711 14.5318C71.1197 14.6172 70.6806 14.7962 70.3224 15.1186C69.9642 15.441 69.7065 15.9406 69.7065 16.4883V20.5634C69.7065 21.1111 69.9642 21.6098 70.3224 21.9322C70.6806 22.2546 71.1197 22.4342 71.5711 22.5196L74.4707 23.0689C74.6958 23.7466 74.9696 24.4053 75.2916 25.0427L73.627 27.483C73.3681 27.8628 73.1849 28.3 73.1599 28.7814C73.135 29.2627 73.3056 29.7974 73.6931 30.1846L76.5745 33.0661C76.9618 33.4534 77.4963 33.6236 77.9776 33.5984C78.4589 33.5732 78.8958 33.3896 79.2754 33.1308L81.7053 31.4745C82.3467 31.7958 83.0097 32.0684 83.6914 32.2917L84.2393 35.1867C84.3247 35.6381 84.5038 36.0772 84.8263 36.4354C85.1487 36.7935 85.6473 37.0512 86.1951 37.0512H90.2708C90.8186 37.0512 91.3172 36.7935 91.6396 36.4354C91.9619 36.0773 92.1411 35.6386 92.2266 35.1874V35.1864L92.7752 32.2888C93.4536 32.0638 94.1128 31.7894 94.7508 31.4672L97.1905 33.1305C97.5701 33.3893 98.007 33.5729 98.4883 33.5981C98.9695 33.6233 99.5047 33.4531 99.892 33.0658L102.773 30.1843C103.161 29.7969 103.331 29.2616 103.306 28.7804C103.281 28.2991 103.097 27.8622 102.838 27.4826L101.181 25.0528C101.503 24.4115 101.776 23.749 101.999 23.0673L104.894 22.5193C105.345 22.4339 105.785 22.2543 106.143 21.9319C106.501 21.6095 106.759 21.1108 106.759 20.5631V16.4879C106.759 15.9401 106.501 15.4407 106.143 15.1183C105.785 14.7961 105.346 14.617 104.895 14.5316L101.997 13.983C101.772 13.305 101.497 12.6462 101.175 12.0085L102.839 9.56835C103.098 9.18882 103.281 8.75186 103.307 8.27054C103.332 7.78923 103.161 7.25398 102.773 6.86662L99.8927 3.98516C99.5053 3.59798 98.9704 3.42684 98.4888 3.45214C98.0076 3.47758 97.5711 3.66143 97.1918 3.91994L94.7619 5.57669C94.1206 5.2554 93.4576 4.9828 92.7759 4.75953L92.2271 1.86386C92.1417 1.41249 91.9627 0.974228 91.6403 0.616037C91.3179 0.257842 90.8193 0 90.2715 0L86.1944 0.000283035ZM88.2323 11.5075C92.1166 11.5075 95.2497 14.6411 95.2496 18.5254C95.2496 22.4095 92.1164 25.5432 88.2323 25.5433C84.3481 25.5433 81.2144 22.4097 81.2142 18.5254C81.2142 14.641 84.3479 11.5073 88.2323 11.5075Z" fill="#D7B344"/>
<path d="M86.5255 48.7673C86.1411 48.7673 85.7912 48.9482 85.5649 49.1996C85.3387 49.4509 85.2131 49.7584 85.1532 50.0752C85.1532 50.0753 85.1532 50.0755 85.1532 50.0756L84.7686 52.109C84.2926 52.267 83.8299 52.4595 83.3823 52.6856L81.6698 51.518C81.4036 51.3365 81.0974 51.2075 80.7596 51.1897C80.4215 51.1719 80.0465 51.2922 79.7751 51.5637L77.7531 53.5857C77.4813 53.8574 77.3614 54.2327 77.3789 54.5704C77.3964 54.9081 77.5252 55.2151 77.7067 55.4815L78.8693 57.1866C78.6438 57.6366 78.4523 58.1015 78.2955 58.5798L76.2641 58.9643C75.9473 59.0242 75.6392 59.1498 75.3879 59.376C75.1365 59.6023 74.9557 59.9528 74.9557 60.3372V63.1967C74.9557 63.5811 75.1365 63.931 75.3879 64.1572C75.6392 64.3835 75.9473 64.5095 76.2641 64.5694L78.2988 64.9549C78.4567 65.4304 78.6488 65.8927 78.8748 66.3399L77.7067 68.0523C77.5251 68.3188 77.3965 68.6256 77.3789 68.9634C77.3615 69.3012 77.4812 69.6763 77.7531 69.9481L79.7751 71.97C80.0468 72.2418 80.4219 72.3613 80.7596 72.3436C81.0973 72.3259 81.4039 72.197 81.6703 72.0154L83.3754 70.8532C83.8255 71.0787 84.2907 71.2699 84.7691 71.4266L85.1535 73.4581C85.2135 73.7748 85.3391 74.083 85.5654 74.3343C85.7917 74.5856 86.1415 74.7665 86.5259 74.7665H89.3859C89.7703 74.7665 90.1202 74.5856 90.3465 74.3343C90.5726 74.0831 90.6984 73.7752 90.7583 73.4586V73.4579L91.1433 71.4246C91.6193 71.2667 92.0819 71.0742 92.5296 70.8481L94.2416 72.0152C94.5079 72.1968 94.8145 72.3257 95.1522 72.3434C95.4899 72.361 95.8655 72.2416 96.1373 71.9698L98.1592 69.9478C98.431 69.676 98.5506 69.3004 98.5329 68.9627C98.5153 68.625 98.3863 68.3184 98.2047 68.052L97.0421 66.347C97.2677 65.897 97.4591 65.4321 97.6159 64.9537L99.6473 64.5692C99.964 64.5093 100.272 64.3832 100.524 64.157C100.775 63.9308 100.956 63.5809 100.956 63.1965V60.3369C100.956 59.9525 100.775 59.6021 100.524 59.3758C100.272 59.1497 99.9644 59.0241 99.6478 58.9641L97.6141 58.5791C97.4562 58.1034 97.2635 57.6411 97.0375 57.1936L98.2051 55.4813C98.3867 55.215 98.5156 54.9084 98.5334 54.5706C98.5513 54.2329 98.4312 53.8573 98.1592 53.5855L96.1378 51.5635C95.8659 51.2918 95.4905 51.1718 95.1526 51.1895C94.8149 51.2074 94.5087 51.3364 94.2425 51.5178L92.5374 52.6803C92.0874 52.4549 91.6221 52.2636 91.1438 52.1069L90.7587 50.075C90.6988 49.7583 90.5732 49.4507 90.3469 49.1994C90.1207 48.948 89.7708 48.7671 89.3864 48.7671L86.5255 48.7673ZM87.9555 56.842C90.6812 56.842 92.8797 59.041 92.8796 61.7666C92.8796 64.4922 90.681 66.6911 87.9555 66.6912C85.2299 66.6912 83.0309 64.4923 83.0308 61.7666C83.0308 59.0409 85.2297 56.842 87.9555 56.842Z" fill="#A1151A"/>
</svg>
