<svg width="85" height="74" viewBox="0 0 85 74" fill="none" xmlns="http://www.w3.org/2000/svg">
<path d="M42.4314 4.98849C35.2 4.98849 28.1311 6.85534 22.1184 10.353C16.1057 13.8506 11.4194 18.8219 8.65207 24.6382C5.88474 30.4546 5.16068 36.8547 6.57145 43.0293C7.98222 49.2039 11.4645 54.8756 16.5778 59.3272C21.6912 63.7789 28.206 66.8105 35.2984 68.0387C42.3909 69.2669 49.7424 68.6365 56.4233 66.2273C63.1042 63.8181 68.8145 59.7382 72.832 54.5037C76.8496 49.2691 78.9939 43.1149 78.9939 36.8194C78.9847 28.3798 75.1297 20.2881 68.2749 14.3204C61.4201 8.35267 52.1256 4.9965 42.4314 4.98849V4.98849ZM20.8516 42.9256C19.715 42.4659 18.7197 41.7784 17.9472 40.9193C17.1747 40.0602 16.6469 39.0541 16.4071 37.9832C16.0036 36.7137 15.9125 35.3842 16.1399 34.0819C16.3672 32.7796 16.9079 31.5338 17.7266 30.426C18.5252 29.2623 19.5834 28.2495 20.8386 27.4474C22.0939 26.6453 23.5209 26.0701 25.0356 25.7557C26.6149 25.325 28.324 25.4386 29.8099 26.0731C30.511 26.3798 31.1234 26.8206 31.6014 27.3623C32.0794 27.9041 32.4106 28.5329 32.5703 29.2017C32.7836 29.9589 32.8132 30.7465 32.6571 31.5142C32.5089 32.3524 32.1275 33.1463 31.546 33.8267L30.6779 34.9603C30.4682 35.2483 30.1747 35.483 29.8273 35.6405L29.3411 35.3079C29.3411 35.1115 29.4627 34.8243 29.9141 34.4767C30.4605 33.9242 30.773 33.2254 30.7995 32.4967C30.9426 31.6928 30.9132 30.8729 30.7127 30.0784C30.4011 28.9364 29.6316 27.9288 28.5425 27.2369C28.0319 26.9118 27.442 26.6935 26.8187 26.5992C26.1954 26.5048 25.5555 26.5368 24.9488 26.6928C23.9799 26.905 23.0793 27.3066 22.3153 27.8671C21.5512 28.4275 20.9438 29.132 20.5391 29.9272C19.5899 31.702 19.417 33.7173 20.0529 35.5951C20.5762 37.741 21.9612 39.6542 23.9592 40.991C24.8714 41.5732 25.9276 41.9612 27.0431 42.1239C28.1586 42.2866 29.3024 42.2196 30.3828 41.928C32.5247 41.5234 34.3964 40.399 35.5911 38.7994C36.1556 38.009 36.5189 37.1224 36.6566 36.1995C36.7944 35.2765 36.7034 34.3386 36.3898 33.4489C35.6932 31.6621 34.7364 29.9604 33.5425 28.3856L30.487 23.8512C30.056 23.1163 29.7072 22.3469 29.4453 21.5539C29.1615 20.5418 29.1567 19.4857 29.4313 18.4718C29.7059 17.4578 30.252 16.5148 31.0252 15.7197C32.7235 13.7738 35.149 12.4053 37.8828 11.8504C39.7195 11.3811 41.6816 11.4448 43.4731 12.0318C44.1948 12.2686 44.8417 12.6509 45.3607 13.1475C45.8798 13.644 46.2563 14.2407 46.4592 14.8884C46.6419 15.5844 46.6382 16.3075 46.4486 17.0021C46.2589 17.6966 45.8883 18.3438 45.3655 18.8937C44.2667 20.2216 42.6601 21.1648 40.8342 21.5539C40.1224 21.7201 39.7404 21.6597 39.6536 21.3876C39.5668 21.1155 39.862 20.8586 40.5738 20.6923C41.1339 20.5402 41.6477 20.2806 42.0774 19.9327C42.507 19.5848 42.8416 19.1575 43.0564 18.6821C43.6522 17.6702 43.8005 16.5031 43.4731 15.4023C43.3585 14.9117 43.1338 14.4456 42.8121 14.0307C42.4904 13.6157 42.0778 13.26 41.5981 12.984C41.1241 12.7324 40.5936 12.5726 40.0424 12.5152C39.4913 12.4578 38.9324 12.5043 38.4036 12.6515C37.8199 12.7583 37.2734 12.9838 36.8087 13.3095C36.3441 13.6352 35.9745 14.0519 35.73 14.5257C35.2142 15.6008 35.1527 16.8004 35.5564 17.9113C35.7253 18.4867 35.9518 19.0481 36.2335 19.589C36.6131 20.2847 37.0482 20.9564 37.5356 21.5992L39.862 24.8186C40.9955 26.2731 41.8569 27.875 42.4141 29.5645C42.8851 30.9644 42.946 32.4447 42.5912 33.8704C42.2364 35.296 41.4772 36.6216 40.3828 37.7263C37.4617 40.4561 33.6406 42.3306 29.4453 43.0919C26.672 43.8891 23.6678 43.8304 20.9384 42.9256H20.8516ZM67.6398 28.6576C66.6849 30.1691 61.98 31.1515 62.6571 29.9877C63.1623 29.0664 63.5973 28.1172 63.9592 27.1462C64.1062 26.6505 64.1062 26.1304 63.9592 25.6347C63.5773 24.3047 62.2231 23.8966 59.9314 24.4105C59.2058 24.5726 58.5017 24.8006 57.8307 25.0906C56.9011 25.4788 56.027 25.9607 55.2266 26.5265C53.9937 27.5023 52.9138 28.6152 52.0148 29.8365L49.3238 33.2826L47.9002 35.5951L47.1536 37.3786V37.5146L46.6502 38.618L46.0599 40.3108L45.8168 41.6711V43.6209L46.0252 45.6764C46.1604 46.1147 46.4026 46.5225 46.7351 46.872C47.0676 47.2215 47.4828 47.5045 47.9523 47.7017C48.9665 48.1819 50.1551 48.3011 51.2682 48.0343C52.0948 47.8197 52.875 47.4878 53.5773 47.0518C54.3404 46.6182 55.045 46.1112 55.678 45.5404L56.6675 44.2708L57.553 42.7593C57.9182 42.0605 58.2201 41.3378 58.4557 40.598C58.4557 40.4922 52.8655 40.9607 53.1085 40.0085C53.2474 39.54 53.3689 40.0085 53.5078 39.6307L60.6259 37.3182L61.8064 37.031L62.605 36.8496C62.8229 36.7532 63.0493 36.6724 63.2821 36.6078C63.7342 36.4799 64.1705 36.3128 64.5842 36.109L66.3203 35.3079C65.6945 38.2177 64.9007 41.0981 63.9418 43.9383C63.3034 45.7764 62.5499 47.5827 61.6849 49.3492C61.4495 49.8061 61.1828 50.2502 60.8863 50.6793C60.2613 51.7826 59.48 52.9918 58.5599 54.3218C57.4786 55.8766 56.071 57.2405 54.4106 58.3423C53.1014 59.1704 51.7199 59.9082 50.2786 60.549C49.1301 61.0786 47.9194 61.4992 46.6675 61.8035C45.2518 62.1723 43.743 62.1723 42.3273 61.8035C41.7876 61.6627 41.3006 61.3996 40.9162 61.0411C40.5318 60.6825 40.2638 60.2414 40.1398 59.763C40.0497 59.3968 40.0479 59.0183 40.1346 58.6515C40.2212 58.2846 40.3944 57.9374 40.6432 57.6319C40.8746 57.2862 41.1825 56.984 41.5491 56.7427C41.9156 56.5014 42.3336 56.3259 42.7786 56.2263C43.2032 56.1567 43.6389 56.1567 44.0634 56.2263L44.7405 56.6192C44.9434 56.7596 45.0943 56.9488 45.1745 57.1633V57.1633L44.7231 57.2691L44.3932 57.3447C44.1669 57.3865 43.9542 57.4721 43.7709 57.595C43.5876 57.718 43.4384 57.8752 43.3342 58.0551C43.2162 58.2373 43.1429 58.4389 43.119 58.647C43.0951 58.8551 43.1211 59.0653 43.1953 59.2642C43.2837 59.5536 43.4493 59.8208 43.6786 60.044C43.9078 60.2672 44.1943 60.4402 44.5148 60.549C45.3448 60.8111 46.2542 60.8111 47.0842 60.549C48.3091 60.2708 49.4173 59.694 50.2786 58.8864C50.1918 58.8864 50.1918 58.7806 50.2786 58.5992C51.6753 57.0231 52.8417 55.302 53.7509 53.4754L55.3828 49.6062L56.737 45.7066L55.2786 47.6866L54.2891 48.8051C53.3458 49.7728 52.2533 50.6223 51.0425 51.3292C49.87 51.9971 48.5881 52.5067 47.2405 52.8406C46.4376 53.0502 45.5942 53.1153 44.7615 53.0322C43.9288 52.949 43.1242 52.7193 42.3967 52.357C40.9283 51.5086 39.8952 50.1974 39.5148 48.6993C39.3373 48.0748 39.2268 47.4372 39.1849 46.7949C39.1514 46.1084 39.1862 45.4206 39.2891 44.7393C39.4106 44.0289 39.5321 43.3488 39.6884 42.6989C39.7899 42.1878 39.9291 41.683 40.105 41.1874C40.4523 40.4166 43.5773 35.5347 44.237 34.7034C44.9865 33.791 45.8043 32.9226 46.6849 32.1037L49.6536 29.3831C50.5672 28.6012 51.5355 27.8693 52.553 27.1915C53.3863 26.6625 54.428 26.0579 55.678 25.408L58.6641 24.1233C59.8436 23.7361 61.0496 23.413 62.2752 23.156C65.8747 22.3398 67.9638 22.9293 68.5425 24.9244C68.6818 25.5677 68.6737 26.2287 68.5188 26.8694C68.3638 27.51 68.0651 28.1177 67.6398 28.6576" fill="#A1151A"/>
<path d="M42.4305 74C34.0307 73.988 25.8234 71.8094 18.845 67.7392C11.8665 63.669 6.42997 57.8898 3.22185 51.1314C0.0137405 44.373 -0.822048 36.9385 0.820038 29.7669C2.46212 22.5952 6.50844 16.008 12.448 10.8371C18.3875 5.66617 25.9539 2.1435 34.1916 0.713916C42.4294 -0.715665 50.969 0.0119623 58.732 2.80491C66.495 5.59786 73.1333 10.3309 77.8085 16.4062C82.4837 22.4816 84.9862 29.6268 85 36.9395C85.0046 41.8075 83.9066 46.6285 81.7689 51.1267C79.6312 55.6248 76.4957 59.7119 72.5419 63.1541C68.588 66.5963 63.8934 69.326 58.7266 71.187C53.5597 73.0481 48.0221 74.004 42.4305 74V74ZM42.4305 2.40315C34.5666 2.40016 26.8783 4.42758 20.338 8.22897C13.7977 12.0304 8.69929 17.435 5.68752 23.7592C2.67574 30.0834 1.88595 37.0432 3.41802 43.7583C4.95009 50.4733 8.7352 56.642 14.2946 61.4841C19.854 66.3262 26.938 69.6241 34.6506 70.9609C42.3631 72.2976 50.3578 71.6131 57.6235 68.9938C64.8891 66.3746 71.0993 61.9383 75.4687 56.246C79.838 50.5538 82.1701 43.8613 82.1701 37.0151C82.177 32.4658 81.1545 27.9599 79.1611 23.7547C77.1677 19.5494 74.2424 15.7271 70.5523 12.5061C66.8621 9.28506 62.4793 6.72834 57.6542 4.9819C52.8291 3.23547 47.656 2.33353 42.4305 2.32758" fill="#D8B243"/>
</svg>
