<svg width="21" height="21" viewBox="0 0 21 21" fill="none" xmlns="http://www.w3.org/2000/svg">
<path d="M10.108 0C7.36304 0 7.01856 0.0119933 5.94046 0.0610178C4.86447 0.110253 4.13002 0.280471 3.48738 0.530222C2.82262 0.788179 2.25873 1.13324 1.69694 1.69482C1.13474 2.25618 0.789408 2.81964 0.530413 3.48368C0.279841 4.12605 0.109283 4.86016 0.0608532 5.93491C0.0126338 7.01219 0 7.35662 0 10.0995C0 12.8423 0.012213 13.1855 0.0610641 14.2628C0.110547 15.3379 0.280894 16.0718 0.530624 16.714C0.788987 17.3782 1.13431 17.9417 1.69631 18.5031C2.25789 19.0648 2.82178 19.4108 3.48612 19.6687C4.12918 19.9185 4.86384 20.0887 5.93962 20.1379C7.01771 20.1869 7.36199 20.1989 10.1067 20.1989C12.8518 20.1989 13.1953 20.1869 14.2734 20.1379C15.3494 20.0887 16.0846 19.9185 16.7277 19.6687C17.3923 19.4108 17.9553 19.0648 18.5169 18.5031C19.0791 17.9417 19.4244 17.3782 19.6834 16.7142C19.9319 16.0718 20.1024 15.3377 20.153 14.263C20.2014 13.1857 20.214 12.8423 20.214 10.0995C20.214 7.35662 20.2014 7.0124 20.153 5.93512C20.1024 4.85995 19.9319 4.12605 19.6834 3.48389C19.4244 2.81964 19.0791 2.25618 18.5169 1.69482C17.9547 1.13303 17.3925 0.787969 16.7271 0.530222C16.0828 0.280471 15.3479 0.110253 14.2719 0.0610178C13.1938 0.0119933 12.8506 0 10.1048 0H10.108ZM9.20127 1.82001C9.47038 1.81959 9.77064 1.82001 10.108 1.82001C12.8066 1.82001 13.1264 1.82969 14.1921 1.87808C15.1775 1.92311 15.7124 2.08764 16.0686 2.22588C16.5403 2.40893 16.8766 2.62775 17.2301 2.98124C17.5839 3.33472 17.8029 3.67137 17.9865 4.14267C18.1248 4.49826 18.2897 5.03269 18.3345 6.01739C18.383 7.08204 18.3935 7.40186 18.3935 10.0972C18.3935 12.7924 18.383 13.1123 18.3345 14.1769C18.2895 15.1616 18.1248 15.696 17.9865 16.0516C17.8033 16.5229 17.5839 16.8585 17.2301 17.2118C16.8764 17.5653 16.5405 17.7841 16.0686 17.9672C15.7128 18.106 15.1775 18.2701 14.1921 18.3152C13.1266 18.3636 12.8066 18.3741 10.108 18.3741C7.40915 18.3741 7.08931 18.3636 6.02385 18.3152C5.0384 18.2697 4.50357 18.1052 4.14708 17.9669C3.67541 17.7839 3.33851 17.5651 2.98476 17.2116C2.63101 16.8581 2.41202 16.5223 2.22841 16.0508C2.09007 15.6952 1.9252 15.1608 1.88035 14.1761C1.83192 13.1114 1.82223 12.7916 1.82223 10.0946C1.82223 7.39765 1.83192 7.07952 1.88035 6.01486C1.92541 5.03017 2.09007 4.49573 2.22841 4.13973C2.4116 3.66842 2.63101 3.33177 2.98476 2.97829C3.33851 2.62481 3.67541 2.40599 4.14708 2.22251C4.50336 2.08365 5.0384 1.91953 6.02385 1.87429C6.95623 1.83221 7.31756 1.81959 9.20127 1.81748V1.82001ZM15.5031 3.49694C14.8335 3.49694 14.2902 4.03915 14.2902 4.70845C14.2902 5.37754 14.8335 5.92039 15.5031 5.92039C16.1727 5.92039 16.7159 5.37754 16.7159 4.70845C16.7159 4.03936 16.1727 3.49652 15.5031 3.49652V3.49694ZM10.108 4.91297C7.24154 4.91297 4.91754 7.23521 4.91754 10.0995C4.91754 12.9637 7.24154 15.2849 10.108 15.2849C12.9744 15.2849 15.2976 12.9637 15.2976 10.0995C15.2976 7.23521 12.9742 4.91297 10.1078 4.91297H10.108ZM10.108 6.73298C11.9685 6.73298 13.477 8.24011 13.477 10.0995C13.477 11.9586 11.9685 13.466 10.108 13.466C8.2472 13.466 6.73893 11.9586 6.73893 10.0995C6.73893 8.24011 8.2472 6.73298 10.108 6.73298V6.73298Z" fill="#A1151A"/>
</svg>
