<svg width="20" height="16" viewBox="0 0 20 16" fill="none" xmlns="http://www.w3.org/2000/svg">
<path fill-rule="evenodd" clip-rule="evenodd" d="M3.19097 15.4218L3.20968 15.4031C2.20893 15.1041 1.2643 14.6461 0.385132 14.0947C0.684421 14.1414 0.993064 14.1508 1.32041 14.1508C2.24634 14.1508 3.1255 14.0013 3.94855 13.7022C4.75289 13.4312 5.51982 13.0013 6.19322 12.4779C5.34212 12.4779 4.54713 12.1695 3.89243 11.6929C3.26579 11.1882 2.77945 10.5433 2.52692 9.7396C2.75139 9.78633 3.00392 9.81437 3.25644 9.81437C3.63055 9.81437 3.94855 9.7583 4.30395 9.68353C3.40609 9.48727 2.62045 9.01998 2.04058 8.34709C1.48876 7.64616 1.14271 6.7957 1.14271 5.84243V5.78636C1.66647 6.08542 2.26504 6.2443 2.91974 6.27234C1.86287 5.57141 1.18012 4.37515 1.18012 3.00133C1.18012 2.3004 1.37653 1.61816 1.70388 1.03872C2.68592 2.21628 3.88308 3.18824 5.25794 3.91721C6.6328 4.61814 8.16666 5.05739 9.79405 5.13215C9.74728 4.86113 9.70052 4.56206 9.70052 4.23496C9.70052 3.1602 10.1401 2.16956 10.8416 1.46863C11.5711 0.739657 12.5251 0.309753 13.6287 0.309753C14.7604 0.309753 15.7892 0.786386 16.4907 1.56208C17.3885 1.38451 18.2116 1.05741 18.9879 0.608817C18.6886 1.50601 18.0806 2.27236 17.2576 2.77703C18.0619 2.67423 18.8195 2.45927 19.521 2.16021C18.9972 2.93591 18.3332 3.61815 17.5569 4.19758C17.5569 4.34711 17.5756 4.52468 17.5756 4.70225C17.5756 6.00131 17.3324 7.30971 16.8461 8.63681C16.3597 9.9639 15.6395 11.1602 14.6949 12.2349C13.7503 13.3097 12.5812 14.1882 11.1876 14.8704C9.79405 15.5527 8.19472 15.8891 6.38963 15.8891C5.286 15.8891 4.21978 15.7209 3.19097 15.4218Z" fill="#A1151A"/>
</svg>
